# xmcd
#
# Track frame offsets:
#	150
#	15245
#	28312
#	51820
#	63110
#	78062
#	91777
#	100487
#	121875
#	131072
#	145330
#	157860
#	172552
#	186617
#
# Disc length: 2775 seconds
#
# Revision: 1
# Processed by: cddbd v1.4PL0 Copyright (c) Steve Scherf et al.
# Submitted via: audiograbber 1.82.00
#
DISCID=a80ad50e
DTITLE=Frankie Davidson - All Star Tribute to Bandstand and 6 O'Clock Rock
DYEAR=1900
DGENRE=
TTITLE0=Aussie Music
TTITLE1=If J.O.K Was Here
TTITLE2=J.O.K Tribute
TTITLE3=Good Ole Girls
TTITLE4=Sally was a Good Old Girl
TTITLE5=Pretty Women
TTITLE6=Stupid Cupid
TTITLE7=Once Before I Go
TTITLE8=Sing Sing Sing
TTITLE9=The Older I Get, The Better I used to Be
TTITLE10=We've Been Everywhere
TTITLE11=Endangered Species
TTITLE12=Lets Take the Long Way around the world
TTITLE13=Friends For Life
EXTD=
EXTT0=
EXTT1=
EXTT2=
EXTT3=
EXTT4=
EXTT5=
EXTT6=
EXTT7=
EXTT8=
EXTT9=
EXTT10=
EXTT11=
EXTT12=
EXTT13=
PLAYORDER=
